<svg width="55" height="55" viewBox="0 0 55 55" fill="none" xmlns="http://www.w3.org/2000/svg">
<path fill-rule="evenodd" clip-rule="evenodd" d="M18.868 18.8687C19.1609 18.5758 19.6358 18.5757 19.9287 18.8686L27.5018 26.4395L35.0749 18.8686C35.3678 18.5757 35.8427 18.5758 36.1355 18.8687C36.4284 19.1616 36.4283 19.6365 36.1354 19.9294L28.5626 27.5L36.1354 35.0706C36.4283 35.3635 36.4284 35.8384 36.1355 36.1313C35.8427 36.4242 35.3678 36.4243 35.0749 36.1314L27.5018 28.5605L19.9287 36.1314C19.6358 36.4243 19.1609 36.4242 18.868 36.1313C18.5752 35.8384 18.5752 35.3635 18.8682 35.0706L26.441 27.5L18.8682 19.9294C18.5752 19.6365 18.5752 19.1616 18.868 18.8687Z" fill="white"/>
</svg>
